<?xml version="1.0" standalone="no"?>
<!DOCTYPE svg PUBLIC "-//W3C//DTD SVG 20010904//EN"
 "http://www.w3.org/TR/2001/REC-SVG-20010904/DTD/svg10.dtd">
<svg version="1.0" xmlns="http://www.w3.org/2000/svg"
 width="882.000000pt" height="712.000000pt" viewBox="0 0 882.000000 712.000000"
 preserveAspectRatio="xMidYMid meet">

<g transform="translate(0.000000,712.000000) scale(0.100000,-0.100000)"
fill="#000000" stroke="none">
<path d="M4165 6810 c-429 -32 -799 -134 -1190 -325 -676 -330 -1196 -859
-1531 -1555 -83 -173 -192 -475 -217 -600 -2 -14 -13 -59 -25 -100 -11 -41
-25 -111 -31 -155 -6 -44 -16 -114 -22 -155 -17 -123 -20 -596 -4 -745 18
-170 40 -307 60 -375 9 -30 27 -95 40 -145 13 -49 39 -137 58 -195 l34 -105
-116 -22 c-197 -38 -248 -53 -364 -108 -192 -91 -365 -237 -449 -380 -149
-254 -200 -422 -199 -654 0 -151 10 -223 52 -358 122 -395 490 -716 894 -782
38 -6 1235 -8 3310 -6 2805 3 3258 6 3305 18 98 26 263 102 354 162 220 147
385 362 462 602 86 270 61 633 -60 871 -121 238 -306 416 -559 538 -89 43
-274 94 -341 94 -24 0 -103 18 -114 26 -2 1 13 51 33 110 20 60 43 138 51 174
8 36 25 101 38 145 64 212 99 645 77 965 -5 85 -12 164 -14 175 -3 11 -8 49
-12 85 -6 55 -20 129 -50 275 -4 17 -11 39 -16 50 -5 11 -22 70 -38 130 -61
230 -208 559 -356 796 -5 9 -19 32 -29 50 -10 19 -38 59 -61 89 -23 30 -57 76
-76 102 -178 245 -486 546 -724 708 -256 174 -351 228 -613 346 -222 101 -584
201 -842 233 -47 6 -103 13 -125 16 -76 10 -480 14 -590 5z m508 -70 c336 -24
735 -124 1031 -257 710 -319 1255 -835 1594 -1508 189 -377 289 -715 332
-1130 21 -201 11 -632 -19 -810 -15 -86 -60 -297 -81 -373 -32 -116 -92 -282
-107 -298 -12 -12 -431 -14 -3001 -14 -1643 0 -2992 4 -2998 8 -16 11 -101
268 -130 394 -72 315 -94 489 -94 774 0 509 115 995 345 1454 166 330 438 688
707 927 360 321 721 529 1178 681 150 50 445 122 500 122 15 0 40 5 56 10 71
25 463 36 687 20z m2988 -4480 c183 -14 308 -61 452 -168 191 -144 326 -313
395 -497 64 -170 76 -235 76 -415 0 -126 -4 -178 -16 -220 -10 -30 -24 -82
-33 -115 -24 -85 -75 -192 -125 -261 -60 -82 -212 -236 -290 -294 -88 -65
-256 -145 -358 -170 l-84 -21 -3242 1 c-1782 0 -3257 3 -3276 6 -143 21 -343
107 -454 194 -245 194 -361 379 -430 686 -45 200 -1 495 106 708 52 104 95
164 182 254 175 182 390 293 604 311 130 12 6345 13 6493 1z"/>
<path d="M4562 6022 c-72 -72 -143 -219 -150 -311 -6 -84 16 -138 99 -248 33
-43 63 -93 69 -112 9 -33 3 -86 -20 -161 -5 -19 -10 -39 -10 -44 0 -21 69 59
95 110 45 89 29 165 -65 304 -20 30 -43 73 -50 94 -17 54 -7 148 29 275 17 58
29 106 27 109 -3 2 -13 -5 -24 -16z"/>
<path d="M4311 5958 c-51 -50 -117 -171 -136 -250 -17 -66 -17 -73 0 -135 13
-47 34 -86 76 -143 98 -133 105 -158 70 -269 -15 -47 -16 -61 -6 -61 27 0 94
99 109 163 11 45 -20 134 -74 214 -64 95 -83 152 -75 223 7 62 38 185 61 244
8 21 13 40 11 42 -2 2 -18 -11 -36 -28z"/>
<path d="M4332 4917 c-52 -16 -126 -89 -152 -149 -18 -41 -21 -64 -17 -112 3
-34 8 -71 12 -82 6 -20 1 -23 -72 -38 -146 -31 -305 -87 -442 -157 -457 -232
-778 -658 -880 -1168 -12 -57 -21 -111 -21 -121 0 -11 -3 -21 -7 -23 -5 -3
-73 -10 -153 -16 -393 -31 -730 -80 -826 -122 -54 -23 -63 -38 -35 -61 71 -57
304 -93 966 -148 696 -59 2510 -64 3295 -11 357 25 744 62 840 82 25 5 57 11
71 13 107 18 209 58 209 83 0 44 -192 92 -500 123 -63 7 -139 16 -169 21 -30
5 -68 9 -85 9 -54 -1 -8 -16 99 -34 337 -56 361 -63 399 -104 18 -21 18 -21
-15 -41 -50 -30 -113 -48 -255 -71 -141 -24 -338 -38 -254 -19 65 15 179 60
206 82 13 10 24 26 24 36 0 36 -46 59 -199 101 -27 7 -45 18 -48 30 -5 20 -26
25 -156 36 -68 6 -78 9 -81 28 -2 11 -12 66 -21 121 -45 257 -177 542 -345
745 -254 303 -561 491 -953 580 l-98 22 8 36 c31 144 -27 267 -151 323 -46 21
-140 24 -194 6z m-117 -413 c9 -14 15 -27 13 -29 -2 -1 -52 -24 -112 -49 -374
-163 -689 -472 -857 -842 -45 -98 -99 -273 -119 -384 -10 -56 -22 -105 -26
-110 -5 -4 -48 -10 -96 -14 l-88 -6 0 30 c0 45 44 245 75 335 37 112 123 284
192 387 211 314 499 534 866 664 67 24 125 43 128 43 4 1 14 -11 24 -25z
m-1695 -1484 c0 -13 -23 -22 -116 -49 -84 -24 -124 -53 -124 -87 0 -21 11 -30
65 -55 35 -17 97 -39 137 -49 l73 -18 -58 -1 c-68 -1 -306 32 -392 55 -75 20
-135 50 -135 68 0 46 88 74 374 115 76 11 141 23 144 26 9 9 32 5 32 -5z"/>
<path d="M1900 1779 c-32 -13 -78 -56 -96 -91 -8 -15 -14 -54 -14 -86 0 -50 5
-66 30 -101 17 -23 37 -44 45 -48 21 -7 19 -23 -3 -23 -24 0 -87 -66 -107
-112 -8 -21 -15 -61 -15 -89 0 -181 142 -281 316 -222 57 19 70 27 124 77 l40
36 6 -27 c18 -73 82 -107 148 -79 41 17 85 87 93 146 8 58 -11 50 -44 -17 -25
-51 -31 -58 -58 -58 -51 0 -55 22 -55 290 0 132 1 268 0 303 l0 62 -42 -6
c-24 -4 -46 -12 -50 -18 -13 -19 -9 -454 4 -518 12 -56 6 -86 -11 -59 -7 11
-16 8 -43 -12 -122 -93 -266 -69 -307 52 -29 89 8 202 80 243 l39 22 -29 19
c-61 38 -91 160 -56 227 35 67 107 90 159 49 31 -24 34 -64 10 -111 -13 -25
-14 -32 -2 -39 61 -39 113 54 73 132 -25 48 -70 69 -145 68 -36 0 -76 -5 -90
-10z"/>
<path d="M2857 1779 c-103 -24 -194 -104 -218 -191 -19 -71 19 -147 82 -163
l26 -7 -13 53 c-17 65 -18 96 -2 140 28 83 103 138 199 146 108 10 184 -39
196 -126 10 -71 -65 -171 -128 -171 l-29 0 0 115 c0 128 4 121 -72 109 l-38
-7 0 -333 0 -334 55 0 55 0 2 203 3 202 67 0 c57 0 70 -4 93 -25 55 -51 70
-200 28 -272 -24 -40 -48 -48 -105 -33 -27 6 -48 8 -48 3 0 -26 35 -71 65 -84
45 -19 71 -17 122 5 53 25 91 87 104 175 20 128 -20 221 -113 261 -24 11 -45
20 -47 22 -2 1 10 18 27 37 79 91 36 229 -85 270 -50 17 -164 20 -226 5z"/>
<path d="M5090 1774 c-77 -33 -120 -101 -120 -190 0 -97 45 -151 183 -214 26
-12 63 -41 82 -63 32 -37 35 -46 35 -106 0 -47 -6 -75 -19 -97 -55 -91 -204
-54 -218 54 -5 40 -3 45 35 81 40 38 40 39 22 56 -60 55 -152 -20 -153 -124
-1 -60 24 -105 75 -139 38 -25 50 -27 137 -27 78 0 104 4 135 21 89 46 130
146 106 258 -15 75 -67 129 -171 178 -125 59 -172 127 -147 210 15 52 48 79
102 85 42 5 48 3 77 -28 28 -30 31 -38 26 -79 -2 -25 -8 -53 -12 -62 -6 -15
-2 -18 28 -18 43 0 58 18 64 73 5 56 -23 102 -80 127 -51 24 -138 25 -187 4z"/>
<path d="M5980 1474 c0 -214 2 -258 15 -270 10 -10 15 -34 15 -67 -1 -48 -2
-50 -15 -33 -8 11 -15 31 -16 45 l0 26 -10 -25 c-14 -35 -49 -70 -70 -70 -10
0 -25 10 -33 22 -13 19 -16 58 -16 225 l0 203 -50 0 c-44 0 -50 -3 -50 -21 l0
-20 -26 20 c-20 16 -41 21 -86 21 -56 0 -60 -2 -103 -44 -56 -56 -79 -127 -79
-246 -1 -99 24 -164 79 -205 62 -48 156 -33 212 33 21 25 22 25 29 7 16 -45
46 -65 95 -65 43 0 51 4 81 40 l35 40 22 -31 c50 -68 156 -74 234 -15 65 50
98 125 105 235 6 108 -10 159 -63 211 -30 29 -43 34 -94 38 -36 3 -61 0 -65
-7 -4 -6 -16 -11 -27 -11 -18 0 -19 8 -19 110 l0 110 -50 0 -50 0 0 -256z
m-248 -11 c16 -14 18 -33 18 -150 0 -147 -11 -190 -54 -218 -19 -12 -36 -15
-62 -11 -49 10 -73 64 -74 162 0 136 49 234 118 234 19 0 44 -7 54 -17z m478
-11 c34 -35 50 -87 50 -168 0 -74 -21 -148 -51 -180 -17 -18 -33 -24 -64 -24
-60 0 -65 18 -65 210 0 153 1 159 22 174 35 25 76 20 108 -12z"/>
<path d="M3370 1325 c0 -224 6 -254 55 -293 21 -17 41 -22 82 -22 50 0 58 3
91 36 33 33 37 35 47 19 24 -43 45 -55 93 -55 54 0 85 17 107 60 17 33 18 40
6 58 -6 10 -15 6 -39 -17 -17 -17 -37 -31 -45 -31 -36 0 -42 28 -47 239 l-5
206 -47 3 -46 3 -4 -193 c-2 -165 -6 -198 -21 -221 -33 -50 -98 -48 -116 5 -6
18 -11 110 -11 219 l0 189 -50 0 -50 0 0 -205z"/>
<path d="M3937 1503 c-46 -33 -83 -106 -97 -193 -16 -101 -14 -110 16 -110 26
0 27 -1 21 -50 -4 -30 -1 -61 5 -76 31 -68 157 -90 239 -42 60 35 109 84 109
108 0 27 -12 25 -41 -6 -35 -37 -72 -54 -121 -54 -50 0 -82 19 -103 60 -24 47
-20 79 13 86 96 21 144 50 172 103 23 47 25 89 6 135 -21 50 -51 66 -121 66
-49 0 -67 -5 -98 -27z m154 -34 c18 -18 20 -29 15 -66 -8 -58 -36 -96 -89
-122 -70 -34 -81 -30 -73 25 10 75 28 124 57 155 32 34 61 37 90 8z"/>
<path d="M4231 1368 c1 -120 4 -165 14 -175 11 -10 11 -20 3 -46 -6 -17 -12
-54 -12 -82 l-1 -50 48 -3 47 -3 0 175 c0 96 4 186 10 201 25 66 99 95 136 54
17 -19 19 -38 20 -168 1 -173 6 -200 43 -235 38 -36 111 -39 146 -6 32 30 65
102 65 141 0 42 -21 33 -40 -18 -8 -22 -21 -48 -29 -57 -18 -22 -58 -20 -71 3
-6 11 -10 87 -10 176 0 169 -6 195 -56 234 -20 16 -41 21 -82 21 -52 0 -58 -3
-94 -41 -22 -23 -39 -35 -38 -28 2 8 2 26 1 42 -1 26 -3 27 -51 27 l-51 0 2
-162z"/>
<path d="M6514 1511 c-85 -52 -132 -209 -104 -345 10 -49 20 -67 59 -106 52
-52 90 -63 165 -49 79 14 136 115 136 240 0 64 16 89 56 89 19 0 25 5 22 18
-3 13 -12 16 -40 14 -35 -3 -36 -2 -53 47 -10 31 -29 62 -51 81 -31 27 -42 30
-97 30 -43 0 -71 -6 -93 -19z m175 -57 c26 -33 26 -40 1 -47 -33 -9 -27 -61
11 -88 29 -20 30 -24 24 -68 -18 -125 -47 -171 -110 -171 -67 0 -105 66 -105
181 0 75 26 156 60 191 38 38 90 39 119 2z"/>
<path d="M6850 1461 l0 -71 33 20 c40 25 47 25 47 1 0 -10 -17 -33 -37 -49
l-38 -30 0 -159 0 -158 44 -3 c28 -2 47 1 52 10 5 7 9 97 9 200 l0 188 24 16
c18 11 42 15 88 12 60 -3 62 -2 72 24 14 40 -14 68 -69 68 -35 0 -48 -6 -74
-32 -17 -17 -32 -37 -32 -42 -1 -6 -5 7 -8 29 l-6 40 -52 3 -53 3 0 -70z"/>
<path d="M882 543 l3 -28 679 -3 c493 -1 682 1 687 9 3 6 4 20 2 30 -5 18 -27
19 -690 19 l-684 0 3 -27z"/>
<path d="M6612 543 l3 -28 668 0 c564 0 669 2 676 14 26 41 30 41 -676 41
l-674 0 3 -27z"/>
</g>
</svg>
